<svg width="343" height="83" viewBox="0 0 343 83" fill="none" xmlns="http://www.w3.org/2000/svg">
<g clip-path="url(#clip0_109_200)">
<rect width="343" height="83" rx="8" fill="#2563EB"/>
<g clip-path="url(#clip1_109_200)">
<path style="mix-blend-mode:color-dodge" d="M429 12.2391V114H-108C-104.953 112.003 -102.052 110.148 -99.4542 108.94C-76.2792 98.0964 -50.2765 89.3594 -21.6338 86.1348C24.1944 80.9779 62.6559 85.6436 107.91 88.7391C163.693 92.5518 234.783 88.5258 280.163 66.328C315.515 49.0415 334.62 24.0197 380.375 15.0243C390.758 12.9822 410.792 11.3731 429 12.2391Z" fill="url(#paint0_linear_109_200)"/>
</g>
<g clip-path="url(#clip2_109_200)">
<path style="mix-blend-mode:color-dodge" d="M379 -10C366.812 7.63083 343.079 16.7454 327.86 20.6262C306.106 26.1888 285.275 24.3669 263.913 17.2197C246.737 11.4847 230.488 2.1815 212.56 0.435124C167.743 -3.91464 131.06 34.0582 88.3847 42.7254C66.7071 47.1291 42.1996 45.2102 21.3299 36.3652C17.3457 34.6781 12.8914 32.4304 8.44983 29.6869V-10H379Z" fill="url(#paint1_linear_109_200)"/>
</g>
<g clip-path="url(#clip3_109_200)">
<path style="mix-blend-mode:color-dodge" d="M17.2721 19.1868C17.898 16.535 16.2557 13.878 13.604 13.2522C10.9522 12.6263 8.29522 14.2686 7.66936 16.9203C7.0435 19.572 8.68578 22.229 11.3375 22.8549C13.9892 23.4808 16.6462 21.8385 17.2721 19.1868Z" fill="url(#paint2_radial_109_200)"/>
<path style="mix-blend-mode:color-dodge" d="M107.046 86.6973C108.973 84.7708 108.973 81.6472 107.046 79.7206C105.119 77.794 101.996 77.794 100.069 79.7206C98.1427 81.6472 98.1427 84.7708 100.069 86.6973C101.996 88.6239 105.119 88.6239 107.046 86.6973Z" fill="url(#paint3_radial_109_200)"/>
<path style="mix-blend-mode:color-dodge" d="M36.1259 80.255C38.0525 78.3284 38.0525 75.2048 36.1259 73.2782C34.1993 71.3517 31.0758 71.3517 29.1492 73.2782C27.2226 75.2048 27.2226 78.3284 29.1492 80.255C31.0758 82.1815 34.1993 82.1815 36.1259 80.255Z" fill="url(#paint4_radial_109_200)"/>
<path style="mix-blend-mode:color-dodge" d="M75.4251 3.7192C76.0584 1.06923 74.4235 -1.59236 71.7736 -2.22562C69.1236 -2.85889 66.462 -1.22403 65.8288 1.42594C65.1955 4.0759 66.8304 6.73749 69.4803 7.37075C72.1303 8.00402 74.7919 6.36916 75.4251 3.7192Z" fill="url(#paint5_radial_109_200)"/>
<path style="mix-blend-mode:color-dodge" d="M58.6227 3.74618C60.5493 1.81961 60.5493 -1.30398 58.6227 -3.23055C56.6962 -5.15712 53.5726 -5.15712 51.646 -3.23055C49.7194 -1.30398 49.7194 1.81961 51.646 3.74618C53.5726 5.67275 56.6962 5.67275 58.6227 3.74618Z" fill="url(#paint6_radial_109_200)"/>
<path style="mix-blend-mode:color-dodge" d="M86.8279 83.2103C89.5525 83.2103 91.7612 81.0016 91.7612 78.277C91.7612 75.5525 89.5525 73.3438 86.8279 73.3438C84.1034 73.3438 81.8947 75.5525 81.8947 78.277C81.8947 81.0016 84.1034 83.2103 86.8279 83.2103Z" fill="url(#paint7_radial_109_200)"/>
<path style="mix-blend-mode:color-dodge" d="M36.2689 17.2173C38.276 17.2173 39.9032 15.5902 39.9032 13.583C39.9032 11.5759 38.276 9.94873 36.2689 9.94873C34.2617 9.94873 32.6346 11.5759 32.6346 13.583C32.6346 15.5902 34.2617 17.2173 36.2689 17.2173Z" fill="url(#paint8_radial_109_200)"/>
<path style="mix-blend-mode:color-dodge" d="M75.1732 20.8443C77.1804 20.8443 78.8075 19.2171 78.8075 17.21C78.8075 15.2028 77.1804 13.5757 75.1732 13.5757C73.1661 13.5757 71.5389 15.2028 71.5389 17.21C71.5389 19.2171 73.1661 20.8443 75.1732 20.8443Z" fill="url(#paint9_radial_109_200)"/>
<path style="mix-blend-mode:color-dodge" d="M42.3625 76.2779C44.3697 76.2779 45.9968 74.6507 45.9968 72.6436C45.9968 70.6364 44.3697 69.0093 42.3625 69.0093C40.3553 69.0093 38.7282 70.6364 38.7282 72.6436C38.7282 74.6507 40.3553 76.2779 42.3625 76.2779Z" fill="url(#paint10_radial_109_200)"/>
<path style="mix-blend-mode:color-dodge" d="M106.554 65.9517C108.561 65.9517 110.188 64.3246 110.188 62.3174C110.188 60.3102 108.561 58.6831 106.554 58.6831C104.547 58.6831 102.919 60.3102 102.919 62.3174C102.919 64.3246 104.547 65.9517 106.554 65.9517Z" fill="url(#paint11_radial_109_200)"/>
<path style="mix-blend-mode:color-dodge" d="M90.2534 0.19963C92.1052 -0.574623 92.9787 -2.70347 92.2045 -4.55529C91.4302 -6.40711 89.3014 -7.28065 87.4496 -6.5064C85.5978 -5.73215 84.7242 -3.6033 85.4985 -1.75148C86.2727 0.100342 88.4016 0.973883 90.2534 0.19963Z" fill="url(#paint12_radial_109_200)"/>
<path style="mix-blend-mode:color-dodge" d="M22.3666 14.6773C24.3738 14.6773 26.0009 13.0501 26.0009 11.043C26.0009 9.03582 24.3738 7.40869 22.3666 7.40869C20.3595 7.40869 18.7324 9.03582 18.7324 11.043C18.7324 13.0501 20.3595 14.6773 22.3666 14.6773Z" fill="url(#paint13_radial_109_200)"/>
<path style="mix-blend-mode:color-dodge" d="M50.1931 89.4575C52.2002 89.4575 53.8274 87.8304 53.8274 85.8233C53.8274 83.8161 52.2002 82.189 50.1931 82.189C48.1859 82.189 46.5588 83.8161 46.5588 85.8233C46.5588 87.8304 48.1859 89.4575 50.1931 89.4575Z" fill="url(#paint14_radial_109_200)"/>
<path style="mix-blend-mode:color-dodge" d="M116.128 29.543C118.136 29.543 119.763 27.9159 119.763 25.9087C119.763 23.9015 118.136 22.2744 116.128 22.2744C114.121 22.2744 112.494 23.9015 112.494 25.9087C112.494 27.9159 114.121 29.543 116.128 29.543Z" fill="url(#paint15_radial_109_200)"/>
<path style="mix-blend-mode:color-dodge" d="M-0.453418 75.4678C1.55374 75.4678 3.18087 73.8407 3.18087 71.8335C3.18087 69.8263 1.55374 68.1992 -0.453418 68.1992C-2.46058 68.1992 -4.08771 69.8263 -4.08771 71.8335C-4.08771 73.8407 -2.46058 75.4678 -0.453418 75.4678Z" fill="url(#paint16_radial_109_200)"/>
<path style="mix-blend-mode:color-dodge" d="M17.0758 35.4541C19.083 35.4541 20.7101 33.827 20.7101 31.8198C20.7101 29.8127 19.083 28.1855 17.0758 28.1855C15.0687 28.1855 13.4415 29.8127 13.4415 31.8198C13.4415 33.827 15.0687 35.4541 17.0758 35.4541Z" fill="url(#paint17_radial_109_200)"/>
<path style="mix-blend-mode:color-dodge" d="M20.71 70.3809C22.7172 70.3809 24.3443 68.7538 24.3443 66.7466C24.3443 64.7394 22.7172 63.1123 20.71 63.1123C18.7029 63.1123 17.0757 64.7394 17.0757 66.7466C17.0757 68.7538 18.7029 70.3809 20.71 70.3809Z" fill="url(#paint18_radial_109_200)"/>
<path style="mix-blend-mode:color-dodge" d="M106.114 7.55986C106.436 5.5788 105.092 3.71128 103.111 3.38865C101.13 3.06601 99.2624 4.41043 98.9397 6.39149C98.6171 8.37255 99.9615 10.2401 101.943 10.5627C103.924 10.8853 105.791 9.54092 106.114 7.55986Z" fill="url(#paint19_radial_109_200)"/>
<path style="mix-blend-mode:overlay" d="M58.3738 114C97.586 114 129.374 82.2122 129.374 43C129.374 3.78778 97.586 -28 58.3738 -28C19.1616 -28 -12.6262 3.78778 -12.6262 43C-12.6262 82.2122 19.1616 114 58.3738 114Z" fill="url(#paint20_radial_109_200)"/>
<g style="mix-blend-mode:overlay">
<path d="M62.592 99.1128C93.5822 99.1128 118.705 73.9904 118.705 43.0002C118.705 12.0101 93.5822 -13.1123 62.592 -13.1123C31.6019 -13.1123 6.47949 12.0101 6.47949 43.0002C6.47949 73.9904 31.6019 99.1128 62.592 99.1128Z" stroke="white" stroke-width="0.88303" stroke-miterlimit="10"/>
</g>
<g style="mix-blend-mode:overlay">
<path d="M59.5196 106.848C94.782 106.848 123.368 78.2619 123.368 42.9995C123.368 7.73717 94.782 -20.8486 59.5196 -20.8486C24.2573 -20.8486 -4.32855 7.73717 -4.32855 42.9995C-4.32855 78.2619 24.2573 106.848 59.5196 106.848Z" stroke="white" stroke-width="7.04965" stroke-miterlimit="10"/>
</g>
<path d="M112.494 40.8616C112.392 49.4438 110.29 56.2088 104.656 58.3909C104.27 58.5441 103.861 58.6682 103.438 58.7777C103.182 58.8433 102.919 58.8944 102.649 58.9455L103.832 29.6304C103.832 29.6304 105.087 29.8712 106.634 30.6885C107.86 31.3307 109.283 32.3378 110.414 33.8631C111.64 35.5124 112.531 37.7747 112.494 40.8616Z" fill="url(#paint21_linear_109_200)"/>
<g filter="url(#filter0_d_109_200)">
<path d="M111.195 42.343C111.035 51.2463 107.13 56.165 104.656 58.3908C104.27 58.5441 103.861 58.6682 103.438 58.7776C112.538 45.3935 108.32 34.1112 106.641 30.6958C107.867 31.338 109.29 32.3451 110.422 33.8703C110.94 36.1034 111.268 38.8912 111.202 42.3503L111.195 42.343Z" fill="#73FDFC"/>
</g>
<path d="M69.2403 80.0363C22.644 81.1383 20.5933 49.6557 21.542 30.2874C21.542 30.2874 21.6588 29.1052 22.2061 27.2589C22.2061 27.2589 22.2061 27.2516 22.2061 27.2443C24.0087 21.1798 30.4891 7.90517 52.9589 5.13201H52.9735C55.951 4.76713 59.2131 4.58468 62.7817 4.62847C69.1381 4.70874 74.5384 5.32176 79.1214 6.31425C102.474 11.3862 104.78 26.4123 105.437 31.5499C105.569 32.5789 105.824 34.615 105.963 37.286V37.3371C106.627 50.546 104.291 79.2044 69.2257 80.0363H69.2403Z" fill="url(#paint22_linear_109_200)"/>
<path d="M100.453 41.0735C100.256 44.5983 98.7597 46.9117 95.9282 48.4078C92.0166 50.473 85.5361 50.9912 76.3701 50.9912C60.5486 50.9912 55.9437 48.7435 54.2944 44.8537C52.6378 40.9567 47.5659 23.2451 47.5659 23.2451C47.4418 22.6758 47.4053 22.1285 47.4345 21.6031C47.5586 19.0853 49.0984 17.2244 49.0984 17.2244C55.3599 10.1383 77.7932 12.1451 88.1779 14.9767C98.57 17.8082 100.934 32.6884 100.46 41.0735H100.453Z" fill="url(#paint23_linear_109_200)"/>
<path d="M98.1613 42.8761C98.0372 45.0436 97.4023 46.7439 96.2493 48.0648C96.1471 48.1816 96.0449 48.2984 95.9282 48.4078C92.0166 50.4731 85.5361 50.9912 76.3701 50.9912C60.5486 50.9912 55.9437 48.7435 54.2944 44.8538C52.6378 40.9568 47.5659 23.2451 47.5659 23.2451C47.4418 22.6759 47.4053 22.1286 47.4345 21.6031C47.9015 20.4939 48.4708 19.8006 48.4708 19.8006C48.5875 19.6692 48.7116 19.5379 48.843 19.4138C55.3599 13.021 76.4212 14.9403 86.2805 17.6258C96.3295 20.3698 98.621 34.761 98.1613 42.8688V42.8761Z" fill="#0E208A"/>
<path d="M56.0167 16.7502C56.0167 16.7502 68.5323 14.8601 79.3184 16.7502C90.1045 18.6403 92.7026 21.5521 94.4321 25.8797C96.1617 30.2073 95.9282 30.9152 95.9282 30.9152C95.9282 30.9152 95.1692 23.6758 78.7857 22.0995L77.9027 17.2173C77.9027 17.2173 66.883 15.5607 56.0167 16.7429V16.7502Z" fill="#09F0EB"/>
<path d="M41.7633 21.9882C44.1499 20.7863 45.438 18.528 44.6404 16.9441C43.8427 15.3602 41.2613 15.0505 38.8747 16.2525C36.4881 17.4544 35.2 19.7127 35.9976 21.2966C36.7953 22.8805 39.3766 23.1901 41.7633 21.9882Z" fill="url(#paint24_linear_109_200)"/>
<path d="M101.418 23.4662C102.091 22.7936 101.453 21.0655 99.9938 19.6063C98.5346 18.1471 96.8064 17.5095 96.1338 18.1821C95.4613 18.8547 96.0989 20.5828 97.5581 22.042C99.0173 23.5012 100.745 24.1388 101.418 23.4662Z" fill="url(#paint25_linear_109_200)"/>
<path d="M79.7125 10.6856C77.7421 10.8462 69.087 10.058 66.1752 9.89746C63.2633 9.73691 61.2127 9.89746 58.0673 7.61325C54.9147 5.32905 52.9662 5.13201 52.9662 5.13201H52.9808C55.9583 4.76713 59.2204 4.58468 62.789 4.62847C69.1453 4.70874 74.5457 5.32176 79.1287 6.31425C80.6028 7.4527 81.6756 10.5324 79.7052 10.6856H79.7125Z" fill="url(#paint26_linear_109_200)"/>
<path d="M103.839 56.6106C103.839 56.6106 103.839 56.6252 103.832 56.6252C100.19 68.2505 91.0387 79.5256 69.2403 80.0364C25.5048 81.0654 21.0166 53.3923 21.4107 33.9802C21.4326 32.7104 21.4764 31.4771 21.5348 30.2876C21.5348 30.2876 21.6515 29.1053 22.1989 27.259C22.1989 27.259 22.1989 27.2517 22.1989 27.2444C23.8263 22.9971 28.7815 19.8225 31.8465 24.3034C34.9116 28.7842 37.9839 42.1318 41.9977 45.7953C46.0115 49.4515 56.98 55.1219 78.7712 54.1804C100.526 53.239 106.276 48.5174 105.97 37.3445C106.225 42.3362 106.043 49.5391 103.832 56.6106H103.839Z" fill="url(#paint27_linear_109_200)"/>
<path d="M103.832 56.6247C100.19 68.2501 91.0387 79.5251 69.2403 80.036C25.5048 81.065 21.0166 53.3918 21.4107 33.9798C21.5275 33.9287 23.7022 33.0602 23.7022 33.0529C23.7022 33.0456 23.819 25.9595 27.0081 25.726C30.1972 25.4852 35.3932 32.221 35.6268 42.9049C35.8384 52.6547 33.3791 54.6543 41.6474 60.675C49.9158 66.6957 53.8128 66.6956 53.8128 66.6956C53.8128 66.6956 57.9434 60.9085 63.0226 61.2661C68.1019 61.6164 86.4047 61.0326 89.4697 61.6164C92.5348 62.2075 93.25 63.8641 93.0091 65.9878C93.0091 65.9878 100.241 65.061 103.824 56.6247H103.832Z" fill="url(#paint28_linear_109_200)"/>
<path d="M101.372 60.7772C97.6797 65.3821 93.0091 65.9878 93.0091 65.9878C93.2499 63.8641 92.5347 62.2075 89.4697 61.6164C86.3973 61.0326 68.1018 61.6164 63.0226 61.2661C57.9433 60.9158 53.8128 66.6957 53.8128 66.6957C53.8128 66.6957 49.9158 66.6957 41.6474 60.675C36.32 56.7999 35.4516 54.5887 35.4443 50.896L27.5846 52.0563C27.5846 52.0563 34.3642 79.4814 73.9546 74.6794C89.7324 72.7674 97.5994 67.0095 101.365 60.7772H101.372Z" fill="url(#paint29_linear_109_200)"/>
<path d="M34.2183 47.094C34.2183 57.486 29.8469 59.8432 29.139 60.2008C28.9639 60.2957 28.2706 60.4197 27.3 60.5292C27.3 60.5292 27.3 60.5292 27.2927 60.5292C26.3805 60.6314 25.2201 60.7116 23.9868 60.7335C21.3523 60.77 18.2508 60.5 16.419 59.4929C13.3686 57.8217 15.7038 31.3016 15.7038 31.3016C17.0101 30.5938 19.8709 29.7545 22.5346 29.6596C23.7168 29.6086 24.899 29.6377 25.9645 29.7472C27.6868 29.9151 29.1025 30.2945 29.7302 30.9221C31.6203 32.8123 34.2183 36.7093 34.2183 47.1013V47.094Z" fill="url(#paint30_linear_109_200)"/>
<path d="M33.7658 40.3659C33.2696 37.0746 32.4303 34.8415 31.5254 33.2798H15.536C15.4119 34.9364 15.2295 37.4906 15.0908 40.3659H33.7658Z" fill="url(#paint31_radial_109_200)"/>
<g filter="url(#filter1_d_109_200)">
<path d="M27.3001 60.5219C27.3001 60.5219 27.3001 60.5219 27.2928 60.5219C26.3805 60.624 25.2202 60.7043 23.9869 60.7262C24.1109 60.5803 28.2342 55.8513 28.2342 45.1747C28.2342 34.498 22.7025 29.791 22.5346 29.6523C23.7168 29.6012 24.8991 29.6304 25.9646 29.7399C26.8914 30.3967 31.2919 34.0529 31.5401 44.3792C31.8174 55.917 27.3001 60.5219 27.3001 60.5219Z" fill="#73FDFC"/>
</g>
<path d="M42.0854 20.7289C45.9669 18.488 48.272 15.2142 47.2342 13.4166C46.1963 11.619 42.2085 11.9784 38.3271 14.2193C34.4457 16.4602 32.1405 19.7341 33.1784 21.5317C34.2162 23.3293 38.204 22.9699 42.0854 20.7289Z" fill="url(#paint32_radial_109_200)"/>
<path d="M16.981 59.4931C20.0441 59.4931 22.5273 53.0957 22.5273 45.2041C22.5273 37.3125 20.0441 30.915 16.981 30.915C13.9179 30.915 11.4347 37.3125 11.4347 45.2041C11.4347 53.0957 13.9179 59.4931 16.981 59.4931Z" fill="url(#paint33_linear_109_200)"/>
<path d="M17.8056 53.8227C19.4782 53.8227 20.8341 50.2286 20.8341 45.7951C20.8341 41.3616 19.4782 37.7676 17.8056 37.7676C16.1329 37.7676 14.777 41.3616 14.777 45.7951C14.777 50.2286 16.1329 53.8227 17.8056 53.8227Z" fill="url(#paint34_radial_109_200)"/>
<path d="M18.4696 52.0567C19.7755 52.0567 20.8341 49.2533 20.8341 45.7952C20.8341 42.3371 19.7755 39.5337 18.4696 39.5337C17.1638 39.5337 16.1052 42.3371 16.1052 45.7952C16.1052 49.2533 17.1638 52.0567 18.4696 52.0567Z" fill="#102D7D"/>
<path style="mix-blend-mode:multiply" d="M53.8201 66.6962C53.8201 66.6962 74.1225 72.0089 93.0164 65.9883C93.0164 65.9883 75.5455 82.1674 53.8201 66.6962Z" fill="url(#paint35_linear_109_200)"/>
<mask id="mask0_109_200" style="mask-type:luminance" maskUnits="userSpaceOnUse" x="47" y="15" width="52" height="36">
<path d="M98.1613 42.8762C98.0299 45.2406 97.2856 47.0432 95.9282 48.4079C92.0166 50.4731 85.5361 50.9913 76.3701 50.9913C60.5486 50.9913 55.9437 48.7436 54.2944 44.8539C52.6378 40.9568 47.5659 23.2452 47.5659 23.2452C47.4418 22.6759 47.4053 22.1286 47.4345 21.6032C47.9015 20.4939 48.4708 19.8006 48.4708 19.8006C54.5279 12.948 76.2242 14.8892 86.2805 17.6332C96.3295 20.3771 98.621 34.7683 98.1613 42.8762Z" fill="white"/>
</mask>
<g mask="url(#mask0_109_200)">
<path d="M67.3364 57.7161C90.6318 44.2665 99.7471 16.4426 87.6961 -4.43044C75.6451 -25.3034 46.9911 -31.3213 23.6957 -17.8717C0.400331 -4.4221 -8.71502 23.4019 3.33602 44.2749C15.3871 65.1479 44.041 71.1657 67.3364 57.7161Z" fill="url(#paint36_radial_109_200)"/>
</g>
<path d="M96.2421 48.0651C96.1399 48.1819 96.0377 48.2986 95.921 48.4081C92.0094 50.4734 85.5289 50.9915 76.3629 50.9915C60.5414 50.9915 55.9365 48.7438 54.2872 44.8541C52.6306 40.9571 47.5586 23.2454 47.5586 23.2454C47.4346 22.6762 47.3981 22.1288 47.4273 21.6034C47.8943 20.4941 48.4636 19.8008 48.4636 19.8008C48.5803 19.6695 48.7044 19.5381 48.8358 19.4141C50.3902 23.3913 52.6525 27.697 54.7324 30.8497C59.0599 37.4323 64.8252 40.6652 72.0792 43.1975C79.7272 45.8685 87.8642 46.8537 95.848 48.014C95.9575 48.0286 96.0961 48.0432 96.2421 48.0578V48.0651Z" fill="url(#paint37_radial_109_200)"/>
<path d="M43.8952 67.7323C43.8952 68.7905 43.3697 69.6516 42.7129 69.6516C42.0561 69.6516 41.5307 68.7905 41.5307 67.7323C41.5307 66.6741 42.0561 65.813 42.7129 65.813C43.3697 65.813 43.8952 66.6741 43.8952 67.7323Z" fill="#06E5EE"/>
<g filter="url(#filter2_d_109_200)">
<path d="M83.1936 63.6167H69.014C68.1515 63.6167 67.4523 64.3159 67.4523 65.1784V65.1857C67.4523 66.0482 68.1515 66.7474 69.014 66.7474H83.1936C84.0561 66.7474 84.7553 66.0482 84.7553 65.1857V65.1784C84.7553 64.3159 84.0561 63.6167 83.1936 63.6167Z" fill="#06E5EE"/>
</g>
<g filter="url(#filter3_d_109_200)">
<path d="M67.4523 35.5199C69.5078 35.5199 71.1741 33.6706 71.1741 31.3893C71.1741 29.1081 69.5078 27.2588 67.4523 27.2588C65.3967 27.2588 63.7304 29.1081 63.7304 31.3893C63.7304 33.6706 65.3967 35.5199 67.4523 35.5199Z" fill="white" stroke="#19F7FF" stroke-width="1.02169" stroke-miterlimit="10"/>
<path d="M87.2877 36.3446C89.3432 36.3446 91.0095 34.4953 91.0095 32.214C91.0095 29.9328 89.3432 28.0835 87.2877 28.0835C85.2321 28.0835 83.5658 29.9328 83.5658 32.214C83.5658 34.4953 85.2321 36.3446 87.2877 36.3446Z" fill="white" stroke="#19F7FF" stroke-width="1.02169" stroke-miterlimit="10"/>
<path d="M79.2601 43.6931C74.5238 43.6931 72.2104 39.3801 72.1155 39.1977C71.9112 38.8109 72.0645 38.3292 72.4512 38.1249C72.838 37.9205 73.3197 38.0738 73.524 38.4606C73.6043 38.6065 75.5017 42.1095 79.2674 42.1095C83.033 42.1095 83.9525 38.7452 83.9963 38.6065C84.1204 38.1906 84.5655 37.9497 84.9815 38.0738C85.3975 38.1979 85.6456 38.6357 85.5216 39.0517C85.0545 40.6572 83.1498 43.7004 79.2674 43.7004L79.2601 43.6931Z" fill="white" stroke="#19F7FF" stroke-width="1.02169" stroke-miterlimit="10"/>
</g>
<path d="M63.2562 19.1221H62.125C61.4479 19.1221 60.899 19.671 60.899 20.3481V21.4793C60.899 22.1564 61.4479 22.7053 62.125 22.7053H63.2562C63.9333 22.7053 64.4822 22.1564 64.4822 21.4793V20.3481C64.4822 19.671 63.9333 19.1221 63.2562 19.1221Z" fill="#19F7FF"/>
<path d="M89.6303 44.854H89.4332C89.3123 44.854 89.2143 44.952 89.2143 45.0729V45.27C89.2143 45.3909 89.3123 45.4889 89.4332 45.4889H89.6303C89.7512 45.4889 89.8492 45.3909 89.8492 45.27V45.0729C89.8492 44.952 89.7512 44.854 89.6303 44.854Z" fill="#19F7FF"/>
<path d="M60.0304 41.4893H59.2423C58.7627 41.4893 58.3738 41.8781 58.3738 42.3577V43.1458C58.3738 43.6255 58.7627 44.0143 59.2423 44.0143H60.0304C60.5101 44.0143 60.8989 43.6255 60.8989 43.1458V42.3577C60.8989 41.8781 60.5101 41.4893 60.0304 41.4893Z" fill="#19F7FF"/>
<path style="mix-blend-mode:color-dodge" d="M97.586 75.3401C109.272 66.2721 117.306 57.0651 115.529 54.7756C113.752 52.4861 102.839 57.9812 91.1526 67.0492C79.4664 76.1172 71.433 85.3242 73.2096 87.6137C74.9861 89.9032 85.8998 84.4081 97.586 75.3401Z" fill="url(#paint38_radial_109_200)"/>
<path style="mix-blend-mode:color-dodge" d="M49.2582 85.0685C50.9225 83.4041 45.3846 75.1678 36.8889 66.672C28.3932 58.1763 20.1568 52.6384 18.4924 54.3028C16.8281 55.9672 22.366 64.2035 30.8617 72.6993C39.3574 81.195 47.5938 86.7329 49.2582 85.0685Z" fill="url(#paint39_radial_109_200)"/>
</g>
<path d="M161.368 19.32V36H158.632V24.576L153.544 36H151.648L146.536 24.576V36H143.8V19.32H146.752L152.608 32.4L158.44 19.32H161.368ZM177.084 29.064C177.084 29.56 177.052 30.008 176.988 30.408H166.884C166.964 31.464 167.356 32.312 168.06 32.952C168.764 33.592 169.628 33.912 170.652 33.912C172.124 33.912 173.164 33.296 173.772 32.064H176.724C176.324 33.28 175.596 34.28 174.54 35.064C173.5 35.832 172.204 36.216 170.652 36.216C169.388 36.216 168.252 35.936 167.244 35.376C166.252 34.8 165.468 34 164.892 32.976C164.332 31.936 164.052 30.736 164.052 29.376C164.052 28.016 164.324 26.824 164.868 25.8C165.428 24.76 166.204 23.96 167.196 23.4C168.204 22.84 169.356 22.56 170.652 22.56C171.9 22.56 173.012 22.832 173.988 23.376C174.964 23.92 175.724 24.688 176.268 25.68C176.812 26.656 177.084 27.784 177.084 29.064ZM174.228 28.2C174.212 27.192 173.852 26.384 173.148 25.776C172.444 25.168 171.572 24.864 170.532 24.864C169.588 24.864 168.78 25.168 168.108 25.776C167.436 26.368 167.036 27.176 166.908 28.2H174.228ZM191.897 29.064C191.897 29.56 191.865 30.008 191.801 30.408H181.697C181.777 31.464 182.169 32.312 182.873 32.952C183.577 33.592 184.441 33.912 185.465 33.912C186.937 33.912 187.977 33.296 188.585 32.064H191.537C191.137 33.28 190.409 34.28 189.353 35.064C188.313 35.832 187.017 36.216 185.465 36.216C184.201 36.216 183.065 35.936 182.057 35.376C181.065 34.8 180.281 34 179.705 32.976C179.145 31.936 178.865 30.736 178.865 29.376C178.865 28.016 179.137 26.824 179.681 25.8C180.241 24.76 181.017 23.96 182.009 23.4C183.017 22.84 184.169 22.56 185.465 22.56C186.713 22.56 187.825 22.832 188.801 23.376C189.777 23.92 190.537 24.688 191.081 25.68C191.625 26.656 191.897 27.784 191.897 29.064ZM189.041 28.2C189.025 27.192 188.665 26.384 187.961 25.776C187.257 25.168 186.385 24.864 185.345 24.864C184.401 24.864 183.593 25.168 182.921 25.776C182.249 26.368 181.849 27.176 181.721 28.2H189.041ZM197.781 25.008V32.328C197.781 32.824 197.893 33.184 198.117 33.408C198.357 33.616 198.757 33.72 199.317 33.72H200.997V36H198.837C197.605 36 196.661 35.712 196.005 35.136C195.349 34.56 195.021 33.624 195.021 32.328V25.008H193.461V22.776H195.021V19.488H197.781V22.776H200.997V25.008H197.781ZM222.113 19.32L216.593 29.952V36H213.857V29.952L208.313 19.32H211.361L215.225 27.504L219.089 19.32H222.113ZM230.02 36.216C228.772 36.216 227.644 35.936 226.636 35.376C225.628 34.8 224.836 34 224.26 32.976C223.684 31.936 223.396 30.736 223.396 29.376C223.396 28.032 223.692 26.84 224.284 25.8C224.876 24.76 225.684 23.96 226.708 23.4C227.732 22.84 228.876 22.56 230.14 22.56C231.404 22.56 232.548 22.84 233.572 23.4C234.596 23.96 235.404 24.76 235.996 25.8C236.588 26.84 236.884 28.032 236.884 29.376C236.884 30.72 236.58 31.912 235.972 32.952C235.364 33.992 234.532 34.8 233.476 35.376C232.436 35.936 231.284 36.216 230.02 36.216ZM230.02 33.84C230.724 33.84 231.38 33.672 231.988 33.336C232.612 33 233.116 32.496 233.5 31.824C233.884 31.152 234.076 30.336 234.076 29.376C234.076 28.416 233.892 27.608 233.524 26.952C233.156 26.28 232.668 25.776 232.06 25.44C231.452 25.104 230.796 24.936 230.092 24.936C229.388 24.936 228.732 25.104 228.124 25.44C227.532 25.776 227.06 26.28 226.708 26.952C226.356 27.608 226.18 28.416 226.18 29.376C226.18 30.8 226.54 31.904 227.26 32.688C227.996 33.456 228.916 33.84 230.02 33.84ZM251.565 22.776V36H248.829V34.44C248.397 34.984 247.829 35.416 247.125 35.736C246.437 36.04 245.701 36.192 244.917 36.192C243.877 36.192 242.941 35.976 242.109 35.544C241.293 35.112 240.645 34.472 240.165 33.624C239.701 32.776 239.469 31.752 239.469 30.552V22.776H242.181V30.144C242.181 31.328 242.477 32.24 243.069 32.88C243.661 33.504 244.469 33.816 245.493 33.816C246.517 33.816 247.325 33.504 247.917 32.88C248.525 32.24 248.829 31.328 248.829 30.144V22.776H251.565ZM257.911 24.696C258.311 24.024 258.839 23.504 259.495 23.136C260.167 22.752 260.959 22.56 261.871 22.56V25.392H261.175C260.103 25.392 259.287 25.664 258.727 26.208C258.183 26.752 257.911 27.696 257.911 29.04V36H255.175V22.776H257.911V24.696ZM153.856 60.592H146.872L145.672 64H142.816L148.792 47.296H151.96L157.936 64H155.056L153.856 60.592ZM153.088 58.36L150.376 50.608L147.64 58.36H153.088ZM163.27 47.32V64H160.534V47.32H163.27ZM183.153 60.592H176.169L174.969 64H172.113L178.089 47.296H181.257L187.233 64H184.353L183.153 60.592ZM182.385 58.36L179.673 50.608L176.937 58.36H182.385ZM194.631 64.216C193.591 64.216 192.655 64.032 191.823 63.664C191.007 63.28 190.359 62.768 189.879 62.128C189.399 61.472 189.143 60.744 189.111 59.944H191.943C191.991 60.504 192.255 60.976 192.735 61.36C193.231 61.728 193.847 61.912 194.583 61.912C195.351 61.912 195.943 61.768 196.359 61.48C196.791 61.176 197.007 60.792 197.007 60.328C197.007 59.832 196.767 59.464 196.287 59.224C195.823 58.984 195.079 58.72 194.055 58.432C193.063 58.16 192.255 57.896 191.631 57.64C191.007 57.384 190.463 56.992 189.999 56.464C189.551 55.936 189.327 55.24 189.327 54.376C189.327 53.672 189.535 53.032 189.951 52.456C190.367 51.864 190.959 51.4 191.727 51.064C192.511 50.728 193.407 50.56 194.415 50.56C195.919 50.56 197.127 50.944 198.039 51.712C198.967 52.464 199.463 53.496 199.527 54.808H196.791C196.743 54.216 196.503 53.744 196.071 53.392C195.639 53.04 195.055 52.864 194.319 52.864C193.599 52.864 193.047 53 192.663 53.272C192.279 53.544 192.087 53.904 192.087 54.352C192.087 54.704 192.215 55 192.471 55.24C192.727 55.48 193.039 55.672 193.407 55.816C193.775 55.944 194.319 56.112 195.039 56.32C195.999 56.576 196.783 56.84 197.391 57.112C198.015 57.368 198.551 57.752 198.999 58.264C199.447 58.776 199.679 59.456 199.695 60.304C199.695 61.056 199.487 61.728 199.071 62.32C198.655 62.912 198.063 63.376 197.295 63.712C196.543 64.048 195.655 64.216 194.631 64.216ZM207.452 64.216C206.412 64.216 205.476 64.032 204.644 63.664C203.828 63.28 203.18 62.768 202.7 62.128C202.22 61.472 201.964 60.744 201.932 59.944H204.764C204.812 60.504 205.076 60.976 205.556 61.36C206.052 61.728 206.668 61.912 207.404 61.912C208.172 61.912 208.764 61.768 209.18 61.48C209.612 61.176 209.828 60.792 209.828 60.328C209.828 59.832 209.588 59.464 209.108 59.224C208.644 58.984 207.9 58.72 206.876 58.432C205.884 58.16 205.076 57.896 204.452 57.64C203.828 57.384 203.284 56.992 202.82 56.464C202.372 55.936 202.148 55.24 202.148 54.376C202.148 53.672 202.356 53.032 202.772 52.456C203.188 51.864 203.78 51.4 204.548 51.064C205.332 50.728 206.228 50.56 207.236 50.56C208.74 50.56 209.948 50.944 210.86 51.712C211.788 52.464 212.284 53.496 212.348 54.808H209.612C209.564 54.216 209.324 53.744 208.892 53.392C208.46 53.04 207.876 52.864 207.14 52.864C206.42 52.864 205.868 53 205.484 53.272C205.1 53.544 204.908 53.904 204.908 54.352C204.908 54.704 205.036 55 205.292 55.24C205.548 55.48 205.86 55.672 206.228 55.816C206.596 55.944 207.14 56.112 207.86 56.32C208.82 56.576 209.604 56.84 210.212 57.112C210.836 57.368 211.372 57.752 211.82 58.264C212.268 58.776 212.5 59.456 212.516 60.304C212.516 61.056 212.308 61.728 211.892 62.32C211.476 62.912 210.884 63.376 210.116 63.712C209.364 64.048 208.476 64.216 207.452 64.216ZM216.864 49.024C216.368 49.024 215.952 48.856 215.616 48.52C215.28 48.184 215.112 47.768 215.112 47.272C215.112 46.776 215.28 46.36 215.616 46.024C215.952 45.688 216.368 45.52 216.864 45.52C217.344 45.52 217.752 45.688 218.088 46.024C218.424 46.36 218.592 46.776 218.592 47.272C218.592 47.768 218.424 48.184 218.088 48.52C217.752 48.856 217.344 49.024 216.864 49.024ZM218.208 50.776V64H215.472V50.776H218.208ZM226.6 64.216C225.56 64.216 224.624 64.032 223.792 63.664C222.976 63.28 222.328 62.768 221.848 62.128C221.368 61.472 221.112 60.744 221.08 59.944H223.912C223.96 60.504 224.224 60.976 224.704 61.36C225.2 61.728 225.816 61.912 226.552 61.912C227.32 61.912 227.912 61.768 228.328 61.48C228.76 61.176 228.976 60.792 228.976 60.328C228.976 59.832 228.736 59.464 228.256 59.224C227.792 58.984 227.048 58.72 226.024 58.432C225.032 58.16 224.224 57.896 223.6 57.64C222.976 57.384 222.432 56.992 221.968 56.464C221.52 55.936 221.296 55.24 221.296 54.376C221.296 53.672 221.504 53.032 221.92 52.456C222.336 51.864 222.928 51.4 223.696 51.064C224.48 50.728 225.376 50.56 226.384 50.56C227.888 50.56 229.096 50.944 230.008 51.712C230.936 52.464 231.432 53.496 231.496 54.808H228.76C228.712 54.216 228.472 53.744 228.04 53.392C227.608 53.04 227.024 52.864 226.288 52.864C225.568 52.864 225.016 53 224.632 53.272C224.248 53.544 224.056 53.904 224.056 54.352C224.056 54.704 224.184 55 224.44 55.24C224.696 55.48 225.008 55.672 225.376 55.816C225.744 55.944 226.288 56.112 227.008 56.32C227.968 56.576 228.752 56.84 229.36 57.112C229.984 57.368 230.52 57.752 230.968 58.264C231.416 58.776 231.648 59.456 231.664 60.304C231.664 61.056 231.456 61.728 231.04 62.32C230.624 62.912 230.032 63.376 229.264 63.712C228.512 64.048 227.624 64.216 226.6 64.216ZM237.812 53.008V60.328C237.812 60.824 237.924 61.184 238.148 61.408C238.388 61.616 238.788 61.72 239.348 61.72H241.028V64H238.868C237.636 64 236.692 63.712 236.036 63.136C235.38 62.56 235.052 61.624 235.052 60.328V53.008H233.492V50.776H235.052V47.488H237.812V50.776H241.028V53.008H237.812ZM242.638 57.328C242.638 56 242.91 54.824 243.454 53.8C244.014 52.776 244.766 51.984 245.71 51.424C246.67 50.848 247.726 50.56 248.878 50.56C249.918 50.56 250.822 50.768 251.59 51.184C252.374 51.584 252.998 52.088 253.462 52.696V50.776H256.222V64H253.462V62.032C252.998 62.656 252.366 63.176 251.566 63.592C250.766 64.008 249.854 64.216 248.83 64.216C247.694 64.216 246.654 63.928 245.71 63.352C244.766 62.76 244.014 61.944 243.454 60.904C242.91 59.848 242.638 58.656 242.638 57.328ZM253.462 57.376C253.462 56.464 253.27 55.672 252.886 55C252.518 54.328 252.03 53.816 251.422 53.464C250.814 53.112 250.158 52.936 249.454 52.936C248.75 52.936 248.094 53.112 247.486 53.464C246.878 53.8 246.382 54.304 245.998 54.976C245.63 55.632 245.446 56.416 245.446 57.328C245.446 58.24 245.63 59.04 245.998 59.728C246.382 60.416 246.878 60.944 247.486 61.312C248.11 61.664 248.766 61.84 249.454 61.84C250.158 61.84 250.814 61.664 251.422 61.312C252.03 60.96 252.518 60.448 252.886 59.776C253.27 59.088 253.462 58.288 253.462 57.376ZM266.488 50.56C267.528 50.56 268.456 50.776 269.272 51.208C270.104 51.64 270.752 52.28 271.216 53.128C271.68 53.976 271.912 55 271.912 56.2V64H269.2V56.608C269.2 55.424 268.904 54.52 268.312 53.896C267.72 53.256 266.912 52.936 265.888 52.936C264.864 52.936 264.048 53.256 263.44 53.896C262.848 54.52 262.552 55.424 262.552 56.608V64H259.816V50.776H262.552V52.288C263 51.744 263.568 51.32 264.256 51.016C264.96 50.712 265.704 50.56 266.488 50.56ZM278.594 53.008V60.328C278.594 60.824 278.706 61.184 278.93 61.408C279.17 61.616 279.57 61.72 280.13 61.72H281.81V64H279.65C278.418 64 277.474 63.712 276.818 63.136C276.162 62.56 275.834 61.624 275.834 60.328V53.008H274.274V50.776H275.834V47.488H278.594V50.776H281.81V53.008H278.594Z" fill="white"/>
<path d="M309.5 33L318.5 42L309.5 51" stroke="white" stroke-width="2.25" stroke-linecap="round" stroke-linejoin="round"/>
</g>
<defs>
<linearGradient id="paint0_linear_109_200" x1="137.461" y1="-1.55136" x2="197.304" y2="436.485" gradientUnits="userSpaceOnUse">
<stop stop-color="white" stop-opacity="0.99"/>
<stop offset="0.01" stop-color="#F1FCFF" stop-opacity="0.93"/>
<stop offset="0.05" stop-color="#C2F4FF" stop-opacity="0.71"/>
<stop offset="0.09" stop-color="#99ECFF" stop-opacity="0.52"/>
<stop offset="0.13" stop-color="#77E6FF" stop-opacity="0.36"/>
<stop offset="0.18" stop-color="#5AE1FF" stop-opacity="0.23"/>
<stop offset="0.22" stop-color="#44DDFF" stop-opacity="0.13"/>
<stop offset="0.27" stop-color="#35DAFF" stop-opacity="0.06"/>
<stop offset="0.31" stop-color="#2CD8FF" stop-opacity="0.01"/>
<stop offset="0.36" stop-color="#29D8FF" stop-opacity="0"/>
</linearGradient>
<linearGradient id="paint1_linear_109_200" x1="193.725" y1="59.2513" x2="193.725" y2="-122.415" gradientUnits="userSpaceOnUse">
<stop stop-color="white" stop-opacity="0.99"/>
<stop offset="0.01" stop-color="#F1FCFF" stop-opacity="0.93"/>
<stop offset="0.05" stop-color="#C2F4FF" stop-opacity="0.71"/>
<stop offset="0.09" stop-color="#99ECFF" stop-opacity="0.52"/>
<stop offset="0.13" stop-color="#77E6FF" stop-opacity="0.36"/>
<stop offset="0.18" stop-color="#5AE1FF" stop-opacity="0.23"/>
<stop offset="0.22" stop-color="#44DDFF" stop-opacity="0.13"/>
<stop offset="0.27" stop-color="#35DAFF" stop-opacity="0.06"/>
<stop offset="0.31" stop-color="#2CD8FF" stop-opacity="0.01"/>
<stop offset="0.36" stop-color="#29D8FF" stop-opacity="0"/>
</linearGradient>
<radialGradient id="paint2_radial_109_200" cx="0" cy="0" r="1" gradientUnits="userSpaceOnUse" gradientTransform="translate(12.4611 18.055) scale(4.93329 4.93329)">
<stop stop-color="white" stop-opacity="0.99"/>
<stop offset="0.02" stop-color="#CFCFCF" stop-opacity="0.81"/>
<stop offset="0.05" stop-color="#999999" stop-opacity="0.6"/>
<stop offset="0.08" stop-color="#6A6A6A" stop-opacity="0.41"/>
<stop offset="0.1" stop-color="#444444" stop-opacity="0.27"/>
<stop offset="0.13" stop-color="#262626" stop-opacity="0.15"/>
<stop offset="0.16" stop-color="#111111" stop-opacity="0.07"/>
<stop offset="0.18" stop-color="#040404" stop-opacity="0.02"/>
<stop offset="0.21" stop-opacity="0"/>
</radialGradient>
<radialGradient id="paint3_radial_109_200" cx="0" cy="0" r="1" gradientUnits="userSpaceOnUse" gradientTransform="translate(103.561 83.21) scale(4.93329)">
<stop stop-color="white" stop-opacity="0.99"/>
<stop offset="0.02" stop-color="#CFCFCF" stop-opacity="0.81"/>
<stop offset="0.05" stop-color="#999999" stop-opacity="0.6"/>
<stop offset="0.08" stop-color="#6A6A6A" stop-opacity="0.41"/>
<stop offset="0.1" stop-color="#444444" stop-opacity="0.27"/>
<stop offset="0.13" stop-color="#262626" stop-opacity="0.15"/>
<stop offset="0.16" stop-color="#111111" stop-opacity="0.07"/>
<stop offset="0.18" stop-color="#040404" stop-opacity="0.02"/>
<stop offset="0.21" stop-opacity="0"/>
</radialGradient>
<radialGradient id="paint4_radial_109_200" cx="0" cy="0" r="1" gradientUnits="userSpaceOnUse" gradientTransform="translate(32.6394 76.7689) scale(4.93329)">
<stop stop-color="white" stop-opacity="0.99"/>
<stop offset="0.02" stop-color="#CFCFCF" stop-opacity="0.81"/>
<stop offset="0.05" stop-color="#999999" stop-opacity="0.6"/>
<stop offset="0.08" stop-color="#6A6A6A" stop-opacity="0.41"/>
<stop offset="0.1" stop-color="#444444" stop-opacity="0.27"/>
<stop offset="0.13" stop-color="#262626" stop-opacity="0.15"/>
<stop offset="0.16" stop-color="#111111" stop-opacity="0.07"/>
<stop offset="0.18" stop-color="#040404" stop-opacity="0.02"/>
<stop offset="0.21" stop-opacity="0"/>
</radialGradient>
<radialGradient id="paint5_radial_109_200" cx="0" cy="0" r="1" gradientUnits="userSpaceOnUse" gradientTransform="translate(70.6274 2.58387) scale(4.93329)">
<stop stop-color="white" stop-opacity="0.99"/>
<stop offset="0.02" stop-color="#CFCFCF" stop-opacity="0.81"/>
<stop offset="0.05" stop-color="#999999" stop-opacity="0.6"/>
<stop offset="0.08" stop-color="#6A6A6A" stop-opacity="0.41"/>
<stop offset="0.1" stop-color="#444444" stop-opacity="0.27"/>
<stop offset="0.13" stop-color="#262626" stop-opacity="0.15"/>
<stop offset="0.16" stop-color="#111111" stop-opacity="0.07"/>
<stop offset="0.18" stop-color="#040404" stop-opacity="0.02"/>
<stop offset="0.21" stop-opacity="0"/>
</radialGradient>
<radialGradient id="paint6_radial_109_200" cx="0" cy="0" r="1" gradientUnits="userSpaceOnUse" gradientTransform="translate(55.1342 0.259098) scale(4.93329)">
<stop stop-color="white" stop-opacity="0.99"/>
<stop offset="0.02" stop-color="#CFCFCF" stop-opacity="0.81"/>
<stop offset="0.05" stop-color="#999999" stop-opacity="0.6"/>
<stop offset="0.08" stop-color="#6A6A6A" stop-opacity="0.41"/>
<stop offset="0.1" stop-color="#444444" stop-opacity="0.27"/>
<stop offset="0.13" stop-color="#262626" stop-opacity="0.15"/>
<stop offset="0.16" stop-color="#111111" stop-opacity="0.07"/>
<stop offset="0.18" stop-color="#040404" stop-opacity="0.02"/>
<stop offset="0.21" stop-opacity="0"/>
</radialGradient>
<radialGradient id="paint7_radial_109_200" cx="0" cy="0" r="1" gradientUnits="userSpaceOnUse" gradientTransform="translate(86.8279 78.277) scale(4.93329 4.93329)">
<stop stop-color="white" stop-opacity="0.99"/>
<stop offset="0.02" stop-color="#CFCFCF" stop-opacity="0.81"/>
<stop offset="0.05" stop-color="#999999" stop-opacity="0.6"/>
<stop offset="0.08" stop-color="#6A6A6A" stop-opacity="0.41"/>
<stop offset="0.1" stop-color="#444444" stop-opacity="0.27"/>
<stop offset="0.13" stop-color="#262626" stop-opacity="0.15"/>
<stop offset="0.16" stop-color="#111111" stop-opacity="0.07"/>
<stop offset="0.18" stop-color="#040404" stop-opacity="0.02"/>
<stop offset="0.21" stop-opacity="0"/>
</radialGradient>
<radialGradient id="paint8_radial_109_200" cx="0" cy="0" r="1" gradientUnits="userSpaceOnUse" gradientTransform="translate(36.2689 13.583) scale(3.63429 3.63429)">
<stop stop-color="white" stop-opacity="0.99"/>
<stop offset="0.02" stop-color="#CFCFCF" stop-opacity="0.81"/>
<stop offset="0.05" stop-color="#999999" stop-opacity="0.6"/>
<stop offset="0.08" stop-color="#6A6A6A" stop-opacity="0.41"/>
<stop offset="0.1" stop-color="#444444" stop-opacity="0.27"/>
<stop offset="0.13" stop-color="#262626" stop-opacity="0.15"/>
<stop offset="0.16" stop-color="#111111" stop-opacity="0.07"/>
<stop offset="0.18" stop-color="#040404" stop-opacity="0.02"/>
<stop offset="0.21" stop-opacity="0"/>
</radialGradient>
<radialGradient id="paint9_radial_109_200" cx="0" cy="0" r="1" gradientUnits="userSpaceOnUse" gradientTransform="translate(75.1732 17.21) scale(3.63429)">
<stop stop-color="white" stop-opacity="0.99"/>
<stop offset="0.02" stop-color="#CFCFCF" stop-opacity="0.81"/>
<stop offset="0.05" stop-color="#999999" stop-opacity="0.6"/>
<stop offset="0.08" stop-color="#6A6A6A" stop-opacity="0.41"/>
<stop offset="0.1" stop-color="#444444" stop-opacity="0.27"/>
<stop offset="0.13" stop-color="#262626" stop-opacity="0.15"/>
<stop offset="0.16" stop-color="#111111" stop-opacity="0.07"/>
<stop offset="0.18" stop-color="#040404" stop-opacity="0.02"/>
<stop offset="0.21" stop-opacity="0"/>
</radialGradient>
<radialGradient id="paint10_radial_109_200" cx="0" cy="0" r="1" gradientUnits="userSpaceOnUse" gradientTransform="translate(42.3625 72.6436) scale(3.63429 3.63429)">
<stop stop-color="white" stop-opacity="0.99"/>
<stop offset="0.02" stop-color="#CFCFCF" stop-opacity="0.81"/>
<stop offset="0.05" stop-color="#999999" stop-opacity="0.6"/>
<stop offset="0.08" stop-color="#6A6A6A" stop-opacity="0.41"/>
<stop offset="0.1" stop-color="#444444" stop-opacity="0.27"/>
<stop offset="0.13" stop-color="#262626" stop-opacity="0.15"/>
<stop offset="0.16" stop-color="#111111" stop-opacity="0.07"/>
<stop offset="0.18" stop-color="#040404" stop-opacity="0.02"/>
<stop offset="0.21" stop-opacity="0"/>
</radialGradient>
<radialGradient id="paint11_radial_109_200" cx="0" cy="0" r="1" gradientUnits="userSpaceOnUse" gradientTransform="translate(106.554 62.3174) scale(3.63429 3.63429)">
<stop stop-color="white" stop-opacity="0.99"/>
<stop offset="0.02" stop-color="#CFCFCF" stop-opacity="0.81"/>
<stop offset="0.05" stop-color="#999999" stop-opacity="0.6"/>
<stop offset="0.08" stop-color="#6A6A6A" stop-opacity="0.41"/>
<stop offset="0.1" stop-color="#444444" stop-opacity="0.27"/>
<stop offset="0.13" stop-color="#262626" stop-opacity="0.15"/>
<stop offset="0.16" stop-color="#111111" stop-opacity="0.07"/>
<stop offset="0.18" stop-color="#040404" stop-opacity="0.02"/>
<stop offset="0.21" stop-opacity="0"/>
</radialGradient>
<radialGradient id="paint12_radial_109_200" cx="0" cy="0" r="1" gradientUnits="userSpaceOnUse" gradientTransform="translate(88.8479 -3.14988) scale(3.63429 3.63429)">
<stop stop-color="white" stop-opacity="0.99"/>
<stop offset="0.02" stop-color="#CFCFCF" stop-opacity="0.81"/>
<stop offset="0.05" stop-color="#999999" stop-opacity="0.6"/>
<stop offset="0.08" stop-color="#6A6A6A" stop-opacity="0.41"/>
<stop offset="0.1" stop-color="#444444" stop-opacity="0.27"/>
<stop offset="0.13" stop-color="#262626" stop-opacity="0.15"/>
<stop offset="0.16" stop-color="#111111" stop-opacity="0.07"/>
<stop offset="0.18" stop-color="#040404" stop-opacity="0.02"/>
<stop offset="0.21" stop-opacity="0"/>
</radialGradient>
<radialGradient id="paint13_radial_109_200" cx="0" cy="0" r="1" gradientUnits="userSpaceOnUse" gradientTransform="translate(22.3666 11.043) scale(3.63429)">
<stop stop-color="white" stop-opacity="0.99"/>
<stop offset="0.02" stop-color="#CFCFCF" stop-opacity="0.81"/>
<stop offset="0.05" stop-color="#999999" stop-opacity="0.6"/>
<stop offset="0.08" stop-color="#6A6A6A" stop-opacity="0.41"/>
<stop offset="0.1" stop-color="#444444" stop-opacity="0.27"/>
<stop offset="0.13" stop-color="#262626" stop-opacity="0.15"/>
<stop offset="0.16" stop-color="#111111" stop-opacity="0.07"/>
<stop offset="0.18" stop-color="#040404" stop-opacity="0.02"/>
<stop offset="0.21" stop-opacity="0"/>
</radialGradient>
<radialGradient id="paint14_radial_109_200" cx="0" cy="0" r="1" gradientUnits="userSpaceOnUse" gradientTransform="translate(50.1931 85.8233) scale(3.63429 3.63429)">
<stop stop-color="white" stop-opacity="0.99"/>
<stop offset="0.02" stop-color="#CFCFCF" stop-opacity="0.81"/>
<stop offset="0.05" stop-color="#999999" stop-opacity="0.6"/>
<stop offset="0.08" stop-color="#6A6A6A" stop-opacity="0.41"/>
<stop offset="0.1" stop-color="#444444" stop-opacity="0.27"/>
<stop offset="0.13" stop-color="#262626" stop-opacity="0.15"/>
<stop offset="0.16" stop-color="#111111" stop-opacity="0.07"/>
<stop offset="0.18" stop-color="#040404" stop-opacity="0.02"/>
<stop offset="0.21" stop-opacity="0"/>
</radialGradient>
<radialGradient id="paint15_radial_109_200" cx="0" cy="0" r="1" gradientUnits="userSpaceOnUse" gradientTransform="translate(116.128 25.9087) scale(3.63429 3.63429)">
<stop stop-color="white" stop-opacity="0.99"/>
<stop offset="0.02" stop-color="#CFCFCF" stop-opacity="0.81"/>
<stop offset="0.05" stop-color="#999999" stop-opacity="0.6"/>
<stop offset="0.08" stop-color="#6A6A6A" stop-opacity="0.41"/>
<stop offset="0.1" stop-color="#444444" stop-opacity="0.27"/>
<stop offset="0.13" stop-color="#262626" stop-opacity="0.15"/>
<stop offset="0.16" stop-color="#111111" stop-opacity="0.07"/>
<stop offset="0.18" stop-color="#040404" stop-opacity="0.02"/>
<stop offset="0.21" stop-opacity="0"/>
</radialGradient>
<radialGradient id="paint16_radial_109_200" cx="0" cy="0" r="1" gradientUnits="userSpaceOnUse" gradientTransform="translate(-0.453418 71.8335) scale(3.63429 3.63429)">
<stop stop-color="white" stop-opacity="0.99"/>
<stop offset="0.02" stop-color="#CFCFCF" stop-opacity="0.81"/>
<stop offset="0.05" stop-color="#999999" stop-opacity="0.6"/>
<stop offset="0.08" stop-color="#6A6A6A" stop-opacity="0.41"/>
<stop offset="0.1" stop-color="#444444" stop-opacity="0.27"/>
<stop offset="0.13" stop-color="#262626" stop-opacity="0.15"/>
<stop offset="0.16" stop-color="#111111" stop-opacity="0.07"/>
<stop offset="0.18" stop-color="#040404" stop-opacity="0.02"/>
<stop offset="0.21" stop-opacity="0"/>
</radialGradient>
<radialGradient id="paint17_radial_109_200" cx="0" cy="0" r="1" gradientUnits="userSpaceOnUse" gradientTransform="translate(17.0758 31.8198) scale(3.63429)">
<stop stop-color="white" stop-opacity="0.99"/>
<stop offset="0.02" stop-color="#CFCFCF" stop-opacity="0.81"/>
<stop offset="0.05" stop-color="#999999" stop-opacity="0.6"/>
<stop offset="0.08" stop-color="#6A6A6A" stop-opacity="0.41"/>
<stop offset="0.1" stop-color="#444444" stop-opacity="0.27"/>
<stop offset="0.13" stop-color="#262626" stop-opacity="0.15"/>
<stop offset="0.16" stop-color="#111111" stop-opacity="0.07"/>
<stop offset="0.18" stop-color="#040404" stop-opacity="0.02"/>
<stop offset="0.21" stop-opacity="0"/>
</radialGradient>
<radialGradient id="paint18_radial_109_200" cx="0" cy="0" r="1" gradientUnits="userSpaceOnUse" gradientTransform="translate(20.71 66.7466) scale(3.63429)">
<stop stop-color="white" stop-opacity="0.99"/>
<stop offset="0.02" stop-color="#CFCFCF" stop-opacity="0.81"/>
<stop offset="0.05" stop-color="#999999" stop-opacity="0.6"/>
<stop offset="0.08" stop-color="#6A6A6A" stop-opacity="0.41"/>
<stop offset="0.1" stop-color="#444444" stop-opacity="0.27"/>
<stop offset="0.13" stop-color="#262626" stop-opacity="0.15"/>
<stop offset="0.16" stop-color="#111111" stop-opacity="0.07"/>
<stop offset="0.18" stop-color="#040404" stop-opacity="0.02"/>
<stop offset="0.21" stop-opacity="0"/>
</radialGradient>
<radialGradient id="paint19_radial_109_200" cx="0" cy="0" r="1" gradientUnits="userSpaceOnUse" gradientTransform="translate(102.52 6.98311) scale(3.63429 3.63429)">
<stop stop-color="white" stop-opacity="0.99"/>
<stop offset="0.02" stop-color="#CFCFCF" stop-opacity="0.81"/>
<stop offset="0.05" stop-color="#999999" stop-opacity="0.6"/>
<stop offset="0.08" stop-color="#6A6A6A" stop-opacity="0.41"/>
<stop offset="0.1" stop-color="#444444" stop-opacity="0.27"/>
<stop offset="0.13" stop-color="#262626" stop-opacity="0.15"/>
<stop offset="0.16" stop-color="#111111" stop-opacity="0.07"/>
<stop offset="0.18" stop-color="#040404" stop-opacity="0.02"/>
<stop offset="0.21" stop-opacity="0"/>
</radialGradient>
<radialGradient id="paint20_radial_109_200" cx="0" cy="0" r="1" gradientUnits="userSpaceOnUse" gradientTransform="translate(58.5197 43.5473) scale(68.4458)">
<stop offset="0.66" stop-color="white" stop-opacity="0.99"/>
<stop offset="0.67" stop-color="white" stop-opacity="0.99"/>
<stop offset="0.7" stop-color="white" stop-opacity="0.99"/>
<stop offset="0.94" stop-color="white" stop-opacity="0"/>
</radialGradient>
<linearGradient id="paint21_linear_109_200" x1="102.649" y1="44.2916" x2="112.494" y2="44.2916" gradientUnits="userSpaceOnUse">
<stop offset="0.09" stop-color="#1A72DB"/>
<stop offset="0.15" stop-color="#1B69CE"/>
<stop offset="0.34" stop-color="#1E50A9"/>
<stop offset="0.52" stop-color="#203D8E"/>
<stop offset="0.68" stop-color="#21327D"/>
<stop offset="0.8" stop-color="#222F78"/>
</linearGradient>
<linearGradient id="paint22_linear_109_200" x1="61.1908" y1="74.6724" x2="64.2559" y2="30.0466" gradientUnits="userSpaceOnUse">
<stop stop-color="#00479E" stop-opacity="0.99"/>
<stop offset="0.03" stop-color="#0D50A3" stop-opacity="0.99"/>
<stop offset="0.19" stop-color="#4C7EBB"/>
<stop offset="0.35" stop-color="#83A5CF"/>
<stop offset="0.5" stop-color="#AFC5E0"/>
<stop offset="0.64" stop-color="#D2DEED"/>
<stop offset="0.77" stop-color="#EAF0F7"/>
<stop offset="0.9" stop-color="#F9FBFD"/>
<stop offset="1" stop-color="white"/>
</linearGradient>
<linearGradient id="paint23_linear_109_200" x1="68.817" y1="41.92" x2="93.8483" y2="-8.37618" gradientUnits="userSpaceOnUse">
<stop stop-color="#00479E" stop-opacity="0.99"/>
<stop offset="0.13" stop-color="#035DB2" stop-opacity="0.78"/>
<stop offset="0.33" stop-color="#077ACE" stop-opacity="0.5"/>
<stop offset="0.52" stop-color="#0A91E3" stop-opacity="0.28"/>
<stop offset="0.7" stop-color="#0DA1F2" stop-opacity="0.13"/>
<stop offset="0.87" stop-color="#0EABFB" stop-opacity="0.03"/>
<stop offset="1" stop-color="#0FAFFF" stop-opacity="0"/>
</linearGradient>
<linearGradient id="paint24_linear_109_200" x1="40.0524" y1="9.61111" x2="40.7602" y2="34.6425" gradientUnits="userSpaceOnUse">
<stop offset="0.09" stop-color="#1A72DB"/>
<stop offset="0.15" stop-color="#1B69CE"/>
<stop offset="0.34" stop-color="#1E50A9"/>
<stop offset="0.52" stop-color="#203D8E"/>
<stop offset="0.68" stop-color="#21327D"/>
<stop offset="0.8" stop-color="#222F78"/>
</linearGradient>
<linearGradient id="paint25_linear_109_200" x1="98.4109" y1="7.95347" x2="99.1188" y2="32.9848" gradientUnits="userSpaceOnUse">
<stop offset="0.09" stop-color="#1A72DB"/>
<stop offset="0.15" stop-color="#1B69CE"/>
<stop offset="0.34" stop-color="#1E50A9"/>
<stop offset="0.52" stop-color="#203D8E"/>
<stop offset="0.68" stop-color="#21327D"/>
<stop offset="0.8" stop-color="#222F78"/>
</linearGradient>
<linearGradient id="paint26_linear_109_200" x1="66.8757" y1="16.0422" x2="66.8757" y2="1.16203" gradientUnits="userSpaceOnUse">
<stop offset="0.09" stop-color="#1A72DB"/>
<stop offset="0.15" stop-color="#1B69CE"/>
<stop offset="0.34" stop-color="#1E50A9"/>
<stop offset="0.52" stop-color="#203D8E"/>
<stop offset="0.68" stop-color="#21327D"/>
<stop offset="0.8" stop-color="#222F78"/>
</linearGradient>
<linearGradient id="paint27_linear_109_200" x1="65.5695" y1="20.3553" x2="57.7828" y2="94.5079" gradientUnits="userSpaceOnUse">
<stop stop-color="#00479E" stop-opacity="0.99"/>
<stop offset="0.13" stop-color="#035DB2" stop-opacity="0.78"/>
<stop offset="0.33" stop-color="#077ACE" stop-opacity="0.5"/>
<stop offset="0.52" stop-color="#0A91E3" stop-opacity="0.28"/>
<stop offset="0.7" stop-color="#0DA1F2" stop-opacity="0.13"/>
<stop offset="0.87" stop-color="#0EABFB" stop-opacity="0.03"/>
<stop offset="1" stop-color="#0FAFFF" stop-opacity="0"/>
</linearGradient>
<linearGradient id="paint28_linear_109_200" x1="54.725" y1="96.2516" x2="59.921" y2="62.7184" gradientUnits="userSpaceOnUse">
<stop offset="0.09" stop-color="#1A72DB"/>
<stop offset="0.15" stop-color="#1B69CE"/>
<stop offset="0.34" stop-color="#1E50A9"/>
<stop offset="0.52" stop-color="#203D8E"/>
<stop offset="0.68" stop-color="#21327D"/>
<stop offset="0.8" stop-color="#222F78"/>
</linearGradient>
<linearGradient id="paint29_linear_109_200" x1="97.3221" y1="63.7766" x2="18.6886" y2="62.5943" gradientUnits="userSpaceOnUse">
<stop offset="0.09" stop-color="#1A72DB"/>
<stop offset="0.15" stop-color="#1B69CE"/>
<stop offset="0.34" stop-color="#1E50A9"/>
<stop offset="0.52" stop-color="#203D8E"/>
<stop offset="0.68" stop-color="#21327D"/>
<stop offset="0.8" stop-color="#222F78"/>
</linearGradient>
<linearGradient id="paint30_linear_109_200" x1="25.242" y1="35.3008" x2="23.3519" y2="63.3972" gradientUnits="userSpaceOnUse">
<stop offset="0.09" stop-color="#1A72DB"/>
<stop offset="0.15" stop-color="#1B69CE"/>
<stop offset="0.34" stop-color="#1E50A9"/>
<stop offset="0.52" stop-color="#203D8E"/>
<stop offset="0.68" stop-color="#21327D"/>
<stop offset="0.8" stop-color="#222F78"/>
</linearGradient>
<radialGradient id="paint31_radial_109_200" cx="0" cy="0" r="1" gradientUnits="userSpaceOnUse" gradientTransform="translate(26.1907 32.3384) scale(46.4795)">
<stop stop-color="white" stop-opacity="0.99"/>
<stop offset="0.01" stop-color="#F4FDFF" stop-opacity="0.95"/>
<stop offset="0.09" stop-color="#BFF3FF" stop-opacity="0.7"/>
<stop offset="0.17" stop-color="#91EBFF" stop-opacity="0.49"/>
<stop offset="0.25" stop-color="#6CE4FF" stop-opacity="0.31"/>
<stop offset="0.32" stop-color="#4EDEFF" stop-opacity="0.18"/>
<stop offset="0.38" stop-color="#3ADBFF" stop-opacity="0.08"/>
<stop offset="0.45" stop-color="#2DD8FF" stop-opacity="0.02"/>
<stop offset="0.5" stop-color="#29D8FF" stop-opacity="0"/>
</radialGradient>
<radialGradient id="paint32_radial_109_200" cx="0" cy="0" r="1" gradientUnits="userSpaceOnUse" gradientTransform="translate(40.7211 17.1553) rotate(-30) scale(8.08024 3.76149)">
<stop stop-color="white" stop-opacity="0.99"/>
<stop offset="0.01" stop-color="#F4FDFF" stop-opacity="0.95"/>
<stop offset="0.09" stop-color="#BFF3FF" stop-opacity="0.7"/>
<stop offset="0.17" stop-color="#91EBFF" stop-opacity="0.49"/>
<stop offset="0.25" stop-color="#6CE4FF" stop-opacity="0.31"/>
<stop offset="0.32" stop-color="#4EDEFF" stop-opacity="0.18"/>
<stop offset="0.38" stop-color="#3ADBFF" stop-opacity="0.08"/>
<stop offset="0.45" stop-color="#2DD8FF" stop-opacity="0.02"/>
<stop offset="0.5" stop-color="#29D8FF" stop-opacity="0"/>
</radialGradient>
<linearGradient id="paint33_linear_109_200" x1="7.8077" y1="44.0583" x2="30.4746" y2="46.8899" gradientUnits="userSpaceOnUse">
<stop offset="0.09" stop-color="#1A72DB"/>
<stop offset="0.15" stop-color="#1B69CE"/>
<stop offset="0.34" stop-color="#1E50A9"/>
<stop offset="0.52" stop-color="#203D8E"/>
<stop offset="0.68" stop-color="#21327D"/>
<stop offset="0.8" stop-color="#222F78"/>
</linearGradient>
<radialGradient id="paint34_radial_109_200" cx="0" cy="0" r="1" gradientUnits="userSpaceOnUse" gradientTransform="translate(8.71253 37.5268) scale(15.588 15.588)">
<stop offset="0.24" stop-color="white"/>
<stop offset="0.38" stop-color="#F9FCFF"/>
<stop offset="0.55" stop-color="#EBF6FF"/>
<stop offset="0.74" stop-color="#D3EBFF"/>
<stop offset="0.93" stop-color="#B2DBFF"/>
<stop offset="0.94" stop-color="#B0DBFF"/>
</radialGradient>
<linearGradient id="paint35_linear_109_200" x1="73.4146" y1="73.4247" x2="73.4146" y2="61.8504" gradientUnits="userSpaceOnUse">
<stop offset="0.09" stop-color="#1A72DB" stop-opacity="0"/>
<stop offset="0.22" stop-color="#1C5FBF" stop-opacity="0.28"/>
<stop offset="0.39" stop-color="#1E4AA0" stop-opacity="0.59"/>
<stop offset="0.55" stop-color="#203B8A" stop-opacity="0.82"/>
<stop offset="0.69" stop-color="#21327C" stop-opacity="0.95"/>
<stop offset="0.8" stop-color="#222F78"/>
</linearGradient>
<radialGradient id="paint36_radial_109_200" cx="0" cy="0" r="1" gradientUnits="userSpaceOnUse" gradientTransform="translate(44.2459 17.8508) rotate(-30) scale(48.7256 44.0102)">
<stop stop-color="white" stop-opacity="0.99"/>
<stop offset="0.01" stop-color="#F4FDFF" stop-opacity="0.95"/>
<stop offset="0.09" stop-color="#BFF3FF" stop-opacity="0.7"/>
<stop offset="0.17" stop-color="#91EBFF" stop-opacity="0.49"/>
<stop offset="0.25" stop-color="#6CE4FF" stop-opacity="0.31"/>
<stop offset="0.32" stop-color="#4EDEFF" stop-opacity="0.18"/>
<stop offset="0.38" stop-color="#3ADBFF" stop-opacity="0.08"/>
<stop offset="0.45" stop-color="#2DD8FF" stop-opacity="0.02"/>
<stop offset="0.5" stop-color="#29D8FF" stop-opacity="0"/>
</radialGradient>
<radialGradient id="paint37_radial_109_200" cx="0" cy="0" r="1" gradientUnits="userSpaceOnUse" gradientTransform="translate(44.7417 53.0714) scale(85.6904 85.6904)">
<stop stop-color="white" stop-opacity="0.99"/>
<stop offset="0.01" stop-color="#F4FDFF" stop-opacity="0.95"/>
<stop offset="0.09" stop-color="#BFF3FF" stop-opacity="0.7"/>
<stop offset="0.17" stop-color="#91EBFF" stop-opacity="0.49"/>
<stop offset="0.25" stop-color="#6CE4FF" stop-opacity="0.31"/>
<stop offset="0.32" stop-color="#4EDEFF" stop-opacity="0.18"/>
<stop offset="0.38" stop-color="#3ADBFF" stop-opacity="0.08"/>
<stop offset="0.45" stop-color="#2DD8FF" stop-opacity="0.02"/>
<stop offset="0.5" stop-color="#29D8FF" stop-opacity="0"/>
</radialGradient>
<radialGradient id="paint38_radial_109_200" cx="0" cy="0" r="1" gradientUnits="userSpaceOnUse" gradientTransform="translate(95.1012 70.5863) rotate(-37.81) scale(26.8189 5.24717)">
<stop stop-color="white" stop-opacity="0.99"/>
<stop offset="0.03" stop-color="#EDFBFF" stop-opacity="0.91"/>
<stop offset="0.09" stop-color="#C4F4FF" stop-opacity="0.72"/>
<stop offset="0.17" stop-color="#9FEDFF" stop-opacity="0.55"/>
<stop offset="0.25" stop-color="#7FE7FF" stop-opacity="0.4"/>
<stop offset="0.33" stop-color="#64E2FF" stop-opacity="0.28"/>
<stop offset="0.42" stop-color="#4EDEFF" stop-opacity="0.18"/>
<stop offset="0.52" stop-color="#3DDBFF" stop-opacity="0.1"/>
<stop offset="0.63" stop-color="#32D9FF" stop-opacity="0.04"/>
<stop offset="0.76" stop-color="#2BD8FF" stop-opacity="0"/>
<stop offset="1" stop-color="#29D8FF" stop-opacity="0"/>
</radialGradient>
<radialGradient id="paint39_radial_109_200" cx="0" cy="0" r="1" gradientUnits="userSpaceOnUse" gradientTransform="translate(34.4572 70.3224) rotate(45) scale(21.7935 4.26394)">
<stop stop-color="white" stop-opacity="0.99"/>
<stop offset="0.03" stop-color="#EDFBFF" stop-opacity="0.91"/>
<stop offset="0.09" stop-color="#C4F4FF" stop-opacity="0.72"/>
<stop offset="0.17" stop-color="#9FEDFF" stop-opacity="0.55"/>
<stop offset="0.25" stop-color="#7FE7FF" stop-opacity="0.4"/>
<stop offset="0.33" stop-color="#64E2FF" stop-opacity="0.28"/>
<stop offset="0.42" stop-color="#4EDEFF" stop-opacity="0.18"/>
<stop offset="0.52" stop-color="#3DDBFF" stop-opacity="0.1"/>
<stop offset="0.63" stop-color="#32D9FF" stop-opacity="0.04"/>
<stop offset="0.76" stop-color="#2BD8FF" stop-opacity="0"/>
<stop offset="1" stop-color="#29D8FF" stop-opacity="0"/>
</radialGradient>
<clipPath id="clip0_109_200">
<rect width="343" height="83" rx="8" fill="white"/>
</clipPath>
<clipPath id="clip1_109_200">
<rect width="537" height="102" fill="white" transform="translate(-108 12)"/>
</clipPath>
<clipPath id="clip2_109_200">
<rect width="269" height="55" fill="white" transform="translate(110 -10)"/>
</clipPath>
<clipPath id="clip3_109_200">
<rect width="154.581" height="142" fill="white" transform="translate(-12.6262 -28)"/>
</clipPath>
</defs>
</svg>
