<svg width="208" height="44" viewBox="0 0 208 44" fill="none" xmlns="http://www.w3.org/2000/svg">
<g clip-path="url(#clip0_332_4826)">
<path d="M75.1747 13.2405C75.1747 16.1075 73.3879 18.4322 68.4459 18.4322H59.6547V0.82959H68.5691C72.6648 0.82959 74.6786 3.0057 74.6786 5.52727C74.6786 7.06088 74.0332 8.59126 72.5189 9.33385C74.4321 10.1249 75.1747 11.8296 75.1747 13.2405ZM64.3243 4.61356V7.95198H68.1249C69.1431 7.95198 69.863 7.23523 69.863 6.24726C69.863 5.25929 69.0945 4.61679 68.1249 4.61679H64.3243V4.61356ZM70.3592 12.9951C70.3592 12.0298 69.6879 11.3873 68.4978 11.3873H64.3275V14.6514H68.4751C69.7171 14.6514 70.3624 14.109 70.3624 12.9951H70.3592Z" fill="#030712"/>
<path d="M93.7719 18.4322L93.3731 6.71541C93.1007 7.75504 92.8023 8.81726 92.4554 9.87949L89.673 18.4322H85.1526L82.3702 9.87949C82.0233 8.83986 81.7509 7.80347 81.4752 6.76384L81.0764 18.4322H76.5818L77.3018 0.82959H83.7582L87.4096 13.0177L91.061 0.82959H97.5174L98.2373 18.4322H93.7687H93.7719Z" fill="#030712"/>
<path d="M125.081 0.82959C123.642 6.78644 122.101 12.4237 120.266 18.4322H114.581L112.149 7.38051L109.691 18.4322H104.006C102.168 12.4237 100.631 6.78967 99.165 0.82959H104.204C105.047 4.58773 106.017 8.61709 107.009 12.5237L109.516 0.82959H114.756L117.263 12.5237C118.255 8.61709 119.225 4.58773 120.068 0.82959H125.085H125.081Z" fill="#030712"/>
<path d="M76.1148 43.1667L75.7159 31.45C75.4436 32.4896 75.1452 33.5518 74.7982 34.614L72.0192 43.1667H67.5019L64.7228 34.614C64.3759 33.5744 64.1035 32.538 63.8278 31.4984L63.429 43.1667H58.9344L59.6544 25.5674H66.1108L69.7589 37.7523L73.4071 25.5674H79.8635L80.5834 43.1667H76.1148Z" fill="#030712"/>
<path d="M81.8743 34.3685C81.8743 28.7571 86.5925 25.1733 91.6805 25.1733C96.7685 25.1733 101.487 28.7571 101.487 34.3685C101.487 39.9799 96.7685 43.5637 91.6805 43.5637C86.5925 43.5637 81.8743 39.9799 81.8743 34.3685ZM96.6712 34.3685C96.6712 31.6016 94.4369 29.377 91.6805 29.377C88.9241 29.377 86.6898 31.6016 86.6898 34.3685C86.6898 37.1355 88.8982 39.36 91.6805 39.36C94.4628 39.36 96.6712 37.1613 96.6712 34.3685Z" fill="#030712"/>
<path d="M116.507 29.5483H111.367V43.1667H106.649V29.5483H101.535V25.5674H116.504V29.5483H116.507Z" fill="#030712"/>
<path d="M116.559 34.3685C116.559 28.7571 121.277 25.1733 126.365 25.1733C131.453 25.1733 136.172 28.7571 136.172 34.3685C136.172 39.9799 131.453 43.5637 126.365 43.5637C121.277 43.5637 116.559 39.9799 116.559 34.3685ZM131.356 34.3685C131.356 31.6016 129.122 29.377 126.365 29.377C123.609 29.377 121.375 31.6016 121.375 34.3685C121.375 37.1355 123.583 39.36 126.365 39.36C129.148 39.36 131.356 37.1613 131.356 34.3685Z" fill="#030712"/>
<path d="M153.251 43.0696V43.1697H148.186C147.862 42.256 147.492 41.2906 147.019 40.3026C146.571 39.3889 146.049 38.4978 145.553 37.7811H142.599V43.1697H137.881V25.5703H145.628C150.618 25.5703 152.48 28.5116 152.48 31.3528C152.48 33.4288 151.562 35.0851 149.824 36.1958C150.592 37.3097 151.238 38.4203 151.76 39.5084C152.33 40.6707 152.827 41.9073 153.248 43.0664L153.251 43.0696ZM142.602 33.9228H145.605C146.87 33.9228 147.839 33.106 147.839 31.6725C147.839 30.2389 146.87 29.4221 145.605 29.4221H142.602V33.9196V33.9228Z" fill="#030712"/>
<path d="M170.409 43.0696V43.1697H165.344C165.019 42.256 164.65 41.2906 164.176 40.3026C163.729 39.3889 163.207 38.4978 162.711 37.7811H159.756V43.1697H155.038V25.5703H162.785C167.776 25.5703 169.637 28.5116 169.637 31.3528C169.637 33.4288 168.719 35.0851 166.981 36.1958C167.75 37.3097 168.395 38.4203 168.917 39.5084C169.488 40.6707 169.984 41.9073 170.406 43.0664L170.409 43.0696ZM159.76 33.9228H162.762C164.027 33.9228 164.997 33.106 164.997 31.6725C164.997 30.2389 164.027 29.4221 162.762 29.4221H159.76V33.9196V33.9228Z" fill="#030712"/>
<path d="M183.863 39.7573H177.261C176.963 40.8938 176.664 42.0303 176.392 43.1667H171.651C173.214 36.7385 175.027 31.0561 177.384 25.5674H183.789C186.146 31.0561 187.959 36.7385 189.499 43.1667H184.732C184.46 42.0303 184.162 40.8938 183.863 39.7573ZM182.722 35.6795C182.028 33.2322 181.282 30.9592 180.562 29.1286C179.816 30.9592 179.096 33.2322 178.377 35.6795H182.722Z" fill="#030712"/>
<path d="M207.721 34.3687C207.721 39.3376 203.897 43.1667 197.691 43.1667H190.962V25.5674H197.691C203.897 25.5674 207.721 29.3998 207.721 34.3654V34.3687ZM202.905 34.3687C202.905 31.1788 200.421 29.6226 197.691 29.6226H195.68V39.1148H197.691C200.421 39.1148 202.905 37.5586 202.905 34.3687Z" fill="#030712"/>
<path d="M22.0965 0C9.89379 0 0 9.8506 0 22C0 34.1494 9.89379 44 22.0965 44C34.2991 44 44.1929 34.1494 44.1929 22C44.1929 9.8506 34.3024 0 22.0965 0ZM42.7563 22C42.7563 33.3616 33.5079 42.5697 22.0965 42.5697C10.685 42.5697 1.43656 33.3616 1.43656 22C1.43656 10.6384 10.6883 1.43029 22.0965 1.43029C33.5046 1.43029 42.7563 10.6384 42.7563 22Z" fill="#030712"/>
<path d="M22.0965 8.95361V9.67037C28.9259 9.67037 34.4808 15.201 34.4808 22.0006H35.2007C35.2007 14.7942 29.3345 8.95361 22.0965 8.95361ZM22.0965 34.3308C15.2672 34.3308 9.71227 28.8001 9.71227 22.0006H8.99237C8.99237 29.2069 14.8586 35.0475 22.0965 35.0475" fill="#030712"/>
<path d="M32.8071 12.6659C33.1054 12.9856 33.5399 13.5054 33.7832 13.8185L38.2582 10.9903C38.0345 10.6997 37.6778 10.2573 37.4118 9.94417L34.5776 11.8103L34.3831 11.975L34.529 11.7651L35.7807 9.27907L34.8954 8.39765L32.3985 9.64391L32.1877 9.78597L32.3563 9.59225L34.2307 6.77364C33.8999 6.49275 33.5853 6.23768 33.18 5.92773L30.3393 10.38C30.6992 10.6577 31.1727 11.0613 31.4743 11.3357L34.1496 9.95386L34.3215 9.82794L34.195 9.99906L32.8103 12.6627L32.8071 12.6659Z" fill="#030712"/>
<path d="M22.6542 7.02563L23.8767 4.30065L23.9546 4.0585L23.9319 4.31033L24.0616 7.95225C24.4896 7.99422 24.9339 8.05234 25.3717 8.12337L25.1738 2.72507C24.5642 2.65727 23.9546 2.60884 23.3481 2.58301L22.1451 5.55982L22.1029 5.77937L22.0608 5.55982L20.8577 2.58301C20.2513 2.60884 19.6416 2.65727 19.032 2.72507L18.8342 8.12337C19.2719 8.05234 19.713 7.99099 20.1443 7.95225L20.274 4.31033L20.2513 4.0585L20.3291 4.30065L21.5516 7.02563H22.6639H22.6542Z" fill="#030712"/>
<path d="M12.7637 11.3261C13.4707 10.5835 13.8728 9.72795 13.1626 8.9111C12.7767 8.46555 12.1314 8.36869 11.5963 8.58824L11.5444 8.61084L11.5606 8.56564C11.6385 8.35578 11.6904 7.68422 11.1131 7.21929C10.8343 6.99329 10.4808 6.90934 10.1241 6.94486C9.45931 7.01266 8.95019 7.46467 7.55902 9.00796C7.1407 9.47289 6.52781 10.209 6.16138 10.6836L9.97816 14.29C11.2461 12.892 11.7617 12.3754 12.7605 11.3294L12.7637 11.3261ZM7.78278 10.4447C8.55132 9.5084 9.36851 8.65927 9.74143 8.32349C9.85817 8.21694 9.98464 8.1104 10.1403 8.06843C10.39 8.00063 10.6494 8.1782 10.7078 8.43326C10.7662 8.68833 10.604 8.9337 10.4224 9.13711C10.0171 9.59235 8.52538 11.1486 8.52538 11.1486L7.78278 10.4479V10.4447ZM9.27771 11.8556C9.27771 11.8556 10.7305 10.3285 11.2039 9.83773C11.392 9.64401 11.512 9.52455 11.6417 9.4632C11.8103 9.38249 11.9919 9.36634 12.1573 9.47289C12.3195 9.57943 12.394 9.76669 12.3519 9.9475C12.3032 10.167 12.1249 10.3737 11.9757 10.5319C11.7747 10.745 10.0527 12.5821 10.0495 12.5853L9.27771 11.8556Z" fill="#030712"/>
<path d="M22.0965 8.95361V22.0006H8.99237C8.99237 14.791 14.8554 8.95361 22.0965 8.95361Z" fill="#0066B1"/>
<path d="M35.2005 22C35.2005 29.2096 29.3375 35.047 22.0963 35.047V22H35.2005Z" fill="#0066B1"/>
</g>
<defs>
<clipPath id="clip0_332_4826">
<rect width="207.721" height="44" fill="white"/>
</clipPath>
</defs>
</svg>
