<svg width="40" height="40" viewBox="0 0 40 40" fill="none" xmlns="http://www.w3.org/2000/svg">
<path d="M3.33325 31.6667V15C3.33325 13.1591 4.82564 11.6667 6.66659 11.6667H7.49992C8.54911 11.6667 9.53707 11.1727 10.1666 10.3333L13.8666 5.4C14.0554 5.14819 14.3518 5 14.6666 5H25.3333C25.648 5 25.9444 5.14819 26.1333 5.4L29.8333 10.3333C30.4628 11.1727 31.4507 11.6667 32.4999 11.6667H33.3333C35.1742 11.6667 36.6666 13.1591 36.6666 15V31.6667C36.6666 33.5076 35.1742 35 33.3333 35H6.66659C4.82564 35 3.33325 33.5076 3.33325 31.6667Z" stroke="#66F1FC" stroke-width="2.5" stroke-linecap="round" stroke-linejoin="round"/>
<path d="M19.9999 28.3333C23.6818 28.3333 26.6666 25.3486 26.6666 21.6667C26.6666 17.9848 23.6818 15 19.9999 15C16.318 15 13.3333 17.9848 13.3333 21.6667C13.3333 25.3486 16.318 28.3333 19.9999 28.3333Z" stroke="#66F1FC" stroke-width="2.5" stroke-linecap="round" stroke-linejoin="round"/>
</svg>
