<svg width="375" height="239" viewBox="0 0 375 239" fill="none" xmlns="http://www.w3.org/2000/svg">
<g clip-path="url(#clip0_306_1667)">
<path d="M-7 65.07C-2.33 70.3 12.88 85.91 36.34 87.95C69.5 90.82 95.59 64.52 104.97 41.6C107.74 34.83 115.85 13.48 106.48 -2.8C104.39 -6.44 99.25 -12.67 92.33 -13.18C88.38 -13.47 84.86 -11.75 83.3 -8.36C80.5 -2.3 86.03 6.58 93.38 9.1C104.49 12.91 123.36 1.96 137.48 -21" stroke="#1F2937" stroke-miterlimit="10"/>
<path d="M403 128.983C338.803 129.856 285.268 97.0127 269.705 50.1228C260.454 22.2672 266.854 -3.79747 271.844 -18.0805L382.685 -33L403 128.983Z" fill="#111827"/>
<path d="M394.87 171.985C334.827 149.889 296.777 100.151 299.101 50.8567C300.477 21.5729 315.765 -0.46395 325.518 -12L434 13.6307L394.87 172V171.985Z" stroke="#1F2937" stroke-miterlimit="10"/>
<path d="M-16 221.614C-13.66 220.434 21.15 203.664 55.52 224.014C89.57 244.174 91.88 282.214 92 284.974" stroke="#1F2937" stroke-miterlimit="10"/>
<path d="M91.5 45C113.315 45 131 27.3153 131 5.5C131 -16.3152 113.315 -34 91.5 -34C69.6848 -34 52 -16.3152 52 5.5C52 27.3153 69.6848 45 91.5 45Z" fill="#1F2937"/>
<path d="M13 239C26.8071 239 38 227.807 38 214C38 200.193 26.8071 189 13 189C-0.80712 189 -12 200.193 -12 214C-12 227.807 -0.80712 239 13 239Z" fill="#111827"/>
<path d="M299 259C318.33 259 334 243.33 334 224C334 204.67 318.33 189 299 189C279.67 189 264 204.67 264 224C264 243.33 279.67 259 299 259Z" fill="#1F2937"/>
</g>
<defs>
<clipPath id="clip0_306_1667">
<rect width="375" height="280" fill="white"/>
</clipPath>
</defs>
</svg>
