<svg width="213" height="44" viewBox="0 0 213 44" fill="none" xmlns="http://www.w3.org/2000/svg">
<g clip-path="url(#clip0_490_2403)">
<path d="M164.489 29.742L158.087 29.6928V17.0335C154.598 17.3828 151.347 19.0113 148.441 20.8465V29.742C146.676 29.742 144.906 29.742 143.136 29.742C142.987 29.742 142.039 29.9338 142.039 29.6042V25.555C142.039 25.5206 142.229 25.4664 141.994 25.3238C128.953 34.9326 113.957 41.3926 97.6593 43.2869C74.0185 46.0322 48.0794 41.2549 32.0514 22.7752C31.842 22.6226 31.5728 22.6964 31.3285 22.6866V29.7469H24.8325V8.23642C24.8325 7.74442 25.5404 6.77517 26.1287 6.78501C31.3734 7.21305 42.0322 4.75303 43.5278 11.9314C44.4002 16.1183 42.0571 20.2217 37.9192 21.4566L37.9342 21.678C39.6043 24.0642 41.5286 26.2782 43.7421 28.1872C60.4133 42.5538 90.3457 43.218 110.631 37.2401C122.212 33.8256 132.612 27.71 141.989 20.325L142.039 8.89079C142.169 8.22658 142.169 7.50826 142.752 7.05561C142.822 7.00149 143.201 6.77517 143.231 6.77517H148.436V16.0445C148.436 16.0445 148.57 16.2266 148.63 16.1429C151.576 14.5341 154.752 13.309 158.072 12.694C158.217 12.5267 158.018 8.97443 158.092 8.33974C158.197 7.47874 158.651 6.85881 159.558 6.77517C161.069 6.63741 162.759 6.93261 164.284 6.72105C164.354 6.67185 164.479 6.79485 164.479 6.82437V29.742H164.489ZM31.3335 10.5439V18.7801C31.3335 18.8194 31.483 18.9375 31.5628 18.9179C33.3276 18.785 35.2271 18.5784 36.6379 17.4172C39.365 15.1835 38.1435 10.5439 34.4394 10.5439H31.3335Z" fill="#030712"/>
<path d="M173.921 0.0246002L210.389 0C213.007 0.428044 212.802 2.32226 211.785 4.20664C206.491 14.0369 200.089 23.5178 194.745 33.3481C193.763 35.326 191.679 35.8868 190.253 33.9533L172.779 4.11316C171.782 2.56335 171.777 0.467405 173.916 0.0246002H173.921ZM187.99 8.47232H176.623C177.002 9.29397 177.486 10.0959 178.009 10.8241H185.507L179.769 13.8007C179.749 13.9139 180.352 15.0406 180.457 15.1882C180.512 15.2669 180.542 15.3555 180.666 15.3309L185.602 12.7085V23.9557L187.99 27.9557V8.47232ZM208.051 8.47232H196.59V27.9557C197.552 26.7208 198.16 25.23 199.072 23.9557V12.7085L204.083 15.3456L204.9 13.8795L199.167 10.8241H206.665L208.051 8.47232Z" fill="#030712"/>
<path d="M114.151 6.77933V29.7412H108.512C108.472 29.7068 108.607 29.6182 108.607 29.5985V15.0106C108.607 14.922 108.547 14.6859 108.418 14.6809L101.069 24.708C100.64 25.0229 99.4688 24.7474 98.9105 24.8507L98.7908 24.8212L91.6068 14.5825V29.7363H86.3522V8.23567C86.3522 7.73874 87.0153 6.87281 87.5687 6.79901L92.7535 6.82361L100.062 17.7855L107.465 7.86174C107.775 7.48782 108.642 6.77441 109.136 6.77441H114.151V6.77933Z" fill="#030712"/>
<path d="M61.66 6.68652H66.1518C66.1518 6.68652 66.2964 6.81936 66.2964 6.8292V22.0764C66.2964 25.1367 69.0284 26.8833 71.9349 26.224C74.3528 25.6779 74.981 23.4983 75.0856 21.3286C75.29 17.0235 74.9211 12.5709 75.0956 8.2511C75.1704 7.66069 75.5194 7.00633 76.1326 6.82428C76.2124 6.79968 76.8106 6.68652 76.8505 6.68652H81.2426C81.2426 6.68652 81.3872 6.81936 81.3872 6.8292V23.2031C81.3872 23.8673 80.7441 25.6632 80.415 26.2929C78.9095 29.1515 75.3798 30.4159 72.2689 30.598C65.7729 30.9719 60.279 29.2105 59.8901 21.9879C59.6459 17.4418 59.9699 12.5561 60.0297 8.0051C60.2541 7.14409 60.8075 6.82428 61.66 6.69144V6.68652Z" fill="#030712"/>
<path d="M125.418 22.6865V29.6976C125.418 30.0075 119.635 29.5106 119.176 29.8206L119.032 29.6828L119.012 9.08257C119.136 7.51799 119.371 6.81935 121.071 6.6865C123.349 6.5143 126.49 6.59794 128.813 6.68158C133.699 6.85379 138.24 8.35932 137.936 14.0764C137.592 20.5856 131.061 22.6471 125.418 22.6816V22.6865ZM125.418 18.8292H127.088C130.204 18.8292 133.285 16.0592 132.123 12.8366C131.665 11.5672 130.069 10.5487 128.713 10.5487H125.418V18.8292Z" fill="#030712"/>
<path d="M14.1388 29.7414H7.73759V12.2851C7.73759 12.2851 7.60298 12.1424 7.59301 12.1424H0.000244141V8.42285C0.000244141 8.11289 0.359193 7.31092 0.608463 7.08952C0.807879 6.91239 1.52079 6.68115 1.77006 6.68115H21.7316C21.7316 6.68115 21.8762 6.81399 21.8762 6.82383V10.4007C21.8762 10.6664 21.612 11.3404 21.4425 11.5717C21.3328 11.7193 20.8293 12.1424 20.6847 12.1424H14.2834C14.2834 12.1424 14.1388 12.2752 14.1388 12.2851V29.7414Z" fill="#030712"/>
<path d="M48.623 29.7419V8.33474C48.623 7.82798 49.1515 6.98173 49.67 6.82428C49.7398 6.8046 50.353 6.68652 50.3929 6.68652H54.8847C54.8847 6.68652 55.0293 6.81936 55.0293 6.8292V29.6976C55.0293 29.737 54.8797 29.855 54.8 29.8354L48.628 29.7468L48.623 29.7419Z" fill="#030712"/>
</g>
<defs>
<clipPath id="clip0_490_2403">
<rect width="212.488" height="44" fill="white"/>
</clipPath>
</defs>
</svg>
